<mxfile host="app.diagrams.net" agent="Mozilla/5.0 (Windows NT 10.0; Win64; x64) AppleWebKit/537.36 (KHTML, like Gecko) Chrome/131.0.0.0 Safari/537.36 Edg/131.0.0.0" version="25.0.3">
  <diagram id="R2lEEEUBdFMjLlhIrx00" name="Page-1">
    <mxGraphModel dx="2715" dy="2433" grid="1" gridSize="10" guides="1" tooltips="1" connect="1" arrows="1" fold="1" page="1" pageScale="1" pageWidth="850" pageHeight="1100" math="0" shadow="0" extFonts="Permanent Marker^https://fonts.googleapis.com/css?family=Permanent+Marker">
      <root>
        <mxCell id="0" />
        <mxCell id="1" parent="0" />
        <mxCell id="NJpbKBPvi1NDH4ifTSa3-1" value="Owner" style="rounded=0;whiteSpace=wrap;html=1;" parent="1" vertex="1">
          <mxGeometry x="-40" y="75" width="120" height="50" as="geometry" />
        </mxCell>
        <mxCell id="NJpbKBPvi1NDH4ifTSa3-2" value="ID" style="ellipse;whiteSpace=wrap;html=1;strokeColor=default;fontStyle=4" parent="1" vertex="1">
          <mxGeometry x="60" y="-5" width="40" height="30" as="geometry" />
        </mxCell>
        <mxCell id="NJpbKBPvi1NDH4ifTSa3-4" value="PhoneNumber" style="ellipse;whiteSpace=wrap;html=1;strokeColor=default;fontStyle=0" parent="1" vertex="1">
          <mxGeometry x="-90" y="-50" width="90" height="50" as="geometry" />
        </mxCell>
        <mxCell id="NJpbKBPvi1NDH4ifTSa3-5" value="E-mail" style="ellipse;whiteSpace=wrap;html=1;strokeColor=default;fontStyle=0" parent="1" vertex="1">
          <mxGeometry x="30" y="-60" width="45" height="40" as="geometry" />
        </mxCell>
        <mxCell id="NJpbKBPvi1NDH4ifTSa3-15" style="edgeStyle=orthogonalEdgeStyle;rounded=0;orthogonalLoop=1;jettySize=auto;html=1;" parent="1" source="NJpbKBPvi1NDH4ifTSa3-6" target="NJpbKBPvi1NDH4ifTSa3-10" edge="1">
          <mxGeometry relative="1" as="geometry" />
        </mxCell>
        <mxCell id="NJpbKBPvi1NDH4ifTSa3-17" style="edgeStyle=orthogonalEdgeStyle;rounded=0;orthogonalLoop=1;jettySize=auto;html=1;entryX=0.5;entryY=0;entryDx=0;entryDy=0;" parent="1" source="NJpbKBPvi1NDH4ifTSa3-6" target="NJpbKBPvi1NDH4ifTSa3-7" edge="1">
          <mxGeometry relative="1" as="geometry" />
        </mxCell>
        <mxCell id="NJpbKBPvi1NDH4ifTSa3-6" value="Address" style="ellipse;whiteSpace=wrap;html=1;strokeColor=default;fontStyle=0" parent="1" vertex="1">
          <mxGeometry x="-160" y="25" width="80" height="50" as="geometry" />
        </mxCell>
        <mxCell id="NJpbKBPvi1NDH4ifTSa3-7" value="City" style="ellipse;whiteSpace=wrap;html=1;strokeColor=default;fontStyle=0" parent="1" vertex="1">
          <mxGeometry x="-110" y="115" width="40" height="30" as="geometry" />
        </mxCell>
        <mxCell id="NJpbKBPvi1NDH4ifTSa3-10" value="Location" style="ellipse;shape=doubleEllipse;margin=3;whiteSpace=wrap;html=1;align=center;" parent="1" vertex="1">
          <mxGeometry x="-200" y="115" width="70" height="40" as="geometry" />
        </mxCell>
        <mxCell id="NJpbKBPvi1NDH4ifTSa3-19" value="Client" style="rounded=0;whiteSpace=wrap;html=1;" parent="1" vertex="1">
          <mxGeometry x="820" y="65" width="120" height="50" as="geometry" />
        </mxCell>
        <mxCell id="NJpbKBPvi1NDH4ifTSa3-22" style="edgeStyle=orthogonalEdgeStyle;rounded=0;orthogonalLoop=1;jettySize=auto;html=1;entryX=0.5;entryY=0;entryDx=0;entryDy=0;" parent="1" source="NJpbKBPvi1NDH4ifTSa3-21" target="NJpbKBPvi1NDH4ifTSa3-1" edge="1">
          <mxGeometry relative="1" as="geometry" />
        </mxCell>
        <mxCell id="NJpbKBPvi1NDH4ifTSa3-21" value="Name" style="ellipse;whiteSpace=wrap;html=1;strokeColor=default;fontStyle=0" parent="1" vertex="1">
          <mxGeometry y="-25" width="40" height="30" as="geometry" />
        </mxCell>
        <mxCell id="NJpbKBPvi1NDH4ifTSa3-23" value="First Name" style="ellipse;whiteSpace=wrap;html=1;strokeColor=default;fontStyle=0" parent="1" vertex="1">
          <mxGeometry x="870" y="-35" width="50" height="40" as="geometry" />
        </mxCell>
        <mxCell id="NJpbKBPvi1NDH4ifTSa3-25" value="E-mail" style="ellipse;whiteSpace=wrap;html=1;strokeColor=default;fontStyle=0" parent="1" vertex="1">
          <mxGeometry x="980" y="-105" width="45" height="40" as="geometry" />
        </mxCell>
        <mxCell id="NJpbKBPvi1NDH4ifTSa3-26" value="Tel" style="ellipse;whiteSpace=wrap;html=1;strokeColor=default;fontStyle=0" parent="1" vertex="1">
          <mxGeometry x="890" y="-90" width="40" height="30" as="geometry" />
        </mxCell>
        <mxCell id="NJpbKBPvi1NDH4ifTSa3-27" value="Last Name" style="ellipse;whiteSpace=wrap;html=1;strokeColor=default;fontStyle=0" parent="1" vertex="1">
          <mxGeometry x="810" y="-25" width="40" height="40" as="geometry" />
        </mxCell>
        <mxCell id="NJpbKBPvi1NDH4ifTSa3-38" style="edgeStyle=orthogonalEdgeStyle;rounded=0;orthogonalLoop=1;jettySize=auto;html=1;entryX=0.5;entryY=1;entryDx=0;entryDy=0;" parent="1" source="NJpbKBPvi1NDH4ifTSa3-30" target="NJpbKBPvi1NDH4ifTSa3-26" edge="1">
          <mxGeometry relative="1" as="geometry" />
        </mxCell>
        <mxCell id="NJpbKBPvi1NDH4ifTSa3-39" style="edgeStyle=orthogonalEdgeStyle;rounded=0;orthogonalLoop=1;jettySize=auto;html=1;entryX=0.5;entryY=1;entryDx=0;entryDy=0;" parent="1" source="NJpbKBPvi1NDH4ifTSa3-30" target="NJpbKBPvi1NDH4ifTSa3-25" edge="1">
          <mxGeometry relative="1" as="geometry" />
        </mxCell>
        <mxCell id="qezSa775ZFS_Le1PgmAF-23" style="edgeStyle=orthogonalEdgeStyle;rounded=0;orthogonalLoop=1;jettySize=auto;html=1;entryX=0.5;entryY=1;entryDx=0;entryDy=0;" parent="1" source="NJpbKBPvi1NDH4ifTSa3-30" target="qezSa775ZFS_Le1PgmAF-21" edge="1">
          <mxGeometry relative="1" as="geometry" />
        </mxCell>
        <mxCell id="NJpbKBPvi1NDH4ifTSa3-30" value="Contact" style="ellipse;whiteSpace=wrap;html=1;strokeColor=default;fontStyle=0" parent="1" vertex="1">
          <mxGeometry x="920" y="-25" width="60" height="40" as="geometry" />
        </mxCell>
        <mxCell id="NJpbKBPvi1NDH4ifTSa3-33" value="Gender" style="ellipse;whiteSpace=wrap;html=1;strokeColor=default;fontStyle=0" parent="1" vertex="1">
          <mxGeometry x="980" y="5" width="60" height="40" as="geometry" />
        </mxCell>
        <mxCell id="NJpbKBPvi1NDH4ifTSa3-53" value="" style="edgeStyle=orthogonalEdgeStyle;rounded=0;orthogonalLoop=1;jettySize=auto;html=1;" parent="1" source="NJpbKBPvi1NDH4ifTSa3-34" target="NJpbKBPvi1NDH4ifTSa3-19" edge="1">
          <mxGeometry relative="1" as="geometry">
            <Array as="points">
              <mxPoint x="960" y="75" />
              <mxPoint x="960" y="75" />
            </Array>
          </mxGeometry>
        </mxCell>
        <mxCell id="NJpbKBPvi1NDH4ifTSa3-34" value="to-do-list" style="ellipse;whiteSpace=wrap;html=1;strokeColor=default;fontStyle=0" parent="1" vertex="1">
          <mxGeometry x="990" y="55" width="60" height="40" as="geometry" />
        </mxCell>
        <mxCell id="NJpbKBPvi1NDH4ifTSa3-35" value="DOB" style="ellipse;whiteSpace=wrap;html=1;strokeColor=default;fontStyle=0" parent="1" vertex="1">
          <mxGeometry x="980" y="105" width="60" height="40" as="geometry" />
        </mxCell>
        <mxCell id="NJpbKBPvi1NDH4ifTSa3-36" value="ID" style="ellipse;whiteSpace=wrap;html=1;strokeColor=default;fontStyle=4" parent="1" vertex="1">
          <mxGeometry x="770" y="-5" width="40" height="30" as="geometry" />
        </mxCell>
        <mxCell id="NJpbKBPvi1NDH4ifTSa3-37" value="DOW" style="ellipse;whiteSpace=wrap;html=1;strokeColor=default;fontStyle=0" parent="1" vertex="1">
          <mxGeometry x="960" y="155" width="60" height="40" as="geometry" />
        </mxCell>
        <mxCell id="NJpbKBPvi1NDH4ifTSa3-52" style="edgeStyle=orthogonalEdgeStyle;rounded=0;orthogonalLoop=1;jettySize=auto;html=1;entryX=0.928;entryY=0.017;entryDx=0;entryDy=0;entryPerimeter=0;" parent="1" source="NJpbKBPvi1NDH4ifTSa3-33" target="NJpbKBPvi1NDH4ifTSa3-19" edge="1">
          <mxGeometry relative="1" as="geometry" />
        </mxCell>
        <mxCell id="NJpbKBPvi1NDH4ifTSa3-57" value="Account" style="rounded=0;whiteSpace=wrap;html=1;" parent="1" vertex="1">
          <mxGeometry x="370" y="-52" width="120" height="50" as="geometry" />
        </mxCell>
        <mxCell id="NJpbKBPvi1NDH4ifTSa3-59" value="ID" style="ellipse;whiteSpace=wrap;html=1;strokeColor=default;fontStyle=4" parent="1" vertex="1">
          <mxGeometry x="490" y="-150" width="40" height="30" as="geometry" />
        </mxCell>
        <mxCell id="NJpbKBPvi1NDH4ifTSa3-61" value="Password" style="ellipse;whiteSpace=wrap;html=1;strokeColor=default;fontStyle=0" parent="1" vertex="1">
          <mxGeometry x="342.5" y="-164" width="70" height="40" as="geometry" />
        </mxCell>
        <mxCell id="NJpbKBPvi1NDH4ifTSa3-62" value="E-mail" style="ellipse;whiteSpace=wrap;html=1;strokeColor=default;fontStyle=0" parent="1" vertex="1">
          <mxGeometry x="445" y="-180" width="45" height="40" as="geometry" />
        </mxCell>
        <mxCell id="NJpbKBPvi1NDH4ifTSa3-65" value="Card Data" style="ellipse;whiteSpace=wrap;html=1;strokeColor=default;fontStyle=0" parent="1" vertex="1">
          <mxGeometry x="280" y="-100" width="80" height="50" as="geometry" />
        </mxCell>
        <mxCell id="NJpbKBPvi1NDH4ifTSa3-70" style="edgeStyle=orthogonalEdgeStyle;rounded=0;orthogonalLoop=1;jettySize=auto;html=1;entryX=0.5;entryY=0;entryDx=0;entryDy=0;" parent="1" source="NJpbKBPvi1NDH4ifTSa3-71" target="NJpbKBPvi1NDH4ifTSa3-57" edge="1">
          <mxGeometry relative="1" as="geometry" />
        </mxCell>
        <mxCell id="NJpbKBPvi1NDH4ifTSa3-71" value="Name" style="ellipse;whiteSpace=wrap;html=1;strokeColor=default;fontStyle=0" parent="1" vertex="1">
          <mxGeometry x="410" y="-155" width="40" height="30" as="geometry" />
        </mxCell>
        <mxCell id="NJpbKBPvi1NDH4ifTSa3-74" value="Staff" style="rounded=0;whiteSpace=wrap;html=1;" parent="1" vertex="1">
          <mxGeometry x="-18.749999999999943" y="-255" width="120" height="50" as="geometry" />
        </mxCell>
        <mxCell id="NJpbKBPvi1NDH4ifTSa3-76" value="ID" style="ellipse;whiteSpace=wrap;html=1;strokeColor=default;fontStyle=4" parent="1" vertex="1">
          <mxGeometry x="98.75000000000011" y="-355" width="40" height="30" as="geometry" />
        </mxCell>
        <mxCell id="NJpbKBPvi1NDH4ifTSa3-77" style="edgeStyle=orthogonalEdgeStyle;rounded=0;orthogonalLoop=1;jettySize=auto;html=1;entryX=0.25;entryY=0;entryDx=0;entryDy=0;" parent="1" source="NJpbKBPvi1NDH4ifTSa3-78" target="NJpbKBPvi1NDH4ifTSa3-74" edge="1">
          <mxGeometry relative="1" as="geometry">
            <mxPoint x="11.250000000000057" y="-245" as="targetPoint" />
            <Array as="points">
              <mxPoint x="-43.74999999999994" y="-305" />
              <mxPoint x="11.250000000000057" y="-305" />
            </Array>
          </mxGeometry>
        </mxCell>
        <mxCell id="NJpbKBPvi1NDH4ifTSa3-78" value="ContactNumber" style="ellipse;whiteSpace=wrap;html=1;strokeColor=default;fontStyle=0" parent="1" vertex="1">
          <mxGeometry x="-98.74999999999994" y="-370" width="90" height="50" as="geometry" />
        </mxCell>
        <mxCell id="NJpbKBPvi1NDH4ifTSa3-79" value="Role" style="ellipse;whiteSpace=wrap;html=1;strokeColor=default;fontStyle=0" parent="1" vertex="1">
          <mxGeometry x="53.750000000000114" y="-385" width="45" height="40" as="geometry" />
        </mxCell>
        <mxCell id="NJpbKBPvi1NDH4ifTSa3-84" style="edgeStyle=orthogonalEdgeStyle;rounded=0;orthogonalLoop=1;jettySize=auto;html=1;entryX=0.662;entryY=0.004;entryDx=0;entryDy=0;entryPerimeter=0;" parent="1" source="NJpbKBPvi1NDH4ifTSa3-79" target="NJpbKBPvi1NDH4ifTSa3-74" edge="1">
          <mxGeometry relative="1" as="geometry" />
        </mxCell>
        <mxCell id="NJpbKBPvi1NDH4ifTSa3-86" style="edgeStyle=orthogonalEdgeStyle;rounded=0;orthogonalLoop=1;jettySize=auto;html=1;entryX=0.5;entryY=0;entryDx=0;entryDy=0;" parent="1" source="NJpbKBPvi1NDH4ifTSa3-87" target="NJpbKBPvi1NDH4ifTSa3-74" edge="1">
          <mxGeometry relative="1" as="geometry" />
        </mxCell>
        <mxCell id="NJpbKBPvi1NDH4ifTSa3-87" value="Name" style="ellipse;whiteSpace=wrap;html=1;strokeColor=default;fontStyle=0" parent="1" vertex="1">
          <mxGeometry x="1.2500000000000568" y="-385" width="40" height="30" as="geometry" />
        </mxCell>
        <mxCell id="NJpbKBPvi1NDH4ifTSa3-88" value="Visitor" style="rounded=0;whiteSpace=wrap;html=1;" parent="1" vertex="1">
          <mxGeometry x="652.46" y="-365" width="120" height="50" as="geometry" />
        </mxCell>
        <mxCell id="NJpbKBPvi1NDH4ifTSa3-90" value="ID" style="ellipse;whiteSpace=wrap;html=1;strokeColor=default;fontStyle=4" parent="1" vertex="1">
          <mxGeometry x="772.46" y="-450" width="40" height="30" as="geometry" />
        </mxCell>
        <mxCell id="NJpbKBPvi1NDH4ifTSa3-91" style="edgeStyle=orthogonalEdgeStyle;rounded=0;orthogonalLoop=1;jettySize=auto;html=1;entryX=0.25;entryY=0;entryDx=0;entryDy=0;" parent="1" source="NJpbKBPvi1NDH4ifTSa3-92" target="NJpbKBPvi1NDH4ifTSa3-88" edge="1">
          <mxGeometry relative="1" as="geometry">
            <mxPoint x="682.46" y="-355" as="targetPoint" />
            <Array as="points">
              <mxPoint x="660" y="-415" />
              <mxPoint x="683" y="-415" />
            </Array>
          </mxGeometry>
        </mxCell>
        <mxCell id="NJpbKBPvi1NDH4ifTSa3-92" value="&lt;span style=&quot;text-align: left; text-wrap-mode: nowrap;&quot;&gt;RSVP_states&lt;/span&gt;" style="ellipse;whiteSpace=wrap;html=1;strokeColor=default;fontStyle=0" parent="1" vertex="1">
          <mxGeometry x="600" y="-490" width="80" height="40" as="geometry" />
        </mxCell>
        <mxCell id="NJpbKBPvi1NDH4ifTSa3-93" value="E-mail" style="ellipse;whiteSpace=wrap;html=1;strokeColor=default;fontStyle=0" parent="1" vertex="1">
          <mxGeometry x="727.46" y="-490" width="45" height="40" as="geometry" />
        </mxCell>
        <mxCell id="NJpbKBPvi1NDH4ifTSa3-98" style="edgeStyle=orthogonalEdgeStyle;rounded=0;orthogonalLoop=1;jettySize=auto;html=1;entryX=0.662;entryY=0.004;entryDx=0;entryDy=0;entryPerimeter=0;" parent="1" source="NJpbKBPvi1NDH4ifTSa3-93" target="NJpbKBPvi1NDH4ifTSa3-88" edge="1">
          <mxGeometry relative="1" as="geometry" />
        </mxCell>
        <mxCell id="NJpbKBPvi1NDH4ifTSa3-100" style="edgeStyle=orthogonalEdgeStyle;rounded=0;orthogonalLoop=1;jettySize=auto;html=1;entryX=0.5;entryY=0;entryDx=0;entryDy=0;" parent="1" source="NJpbKBPvi1NDH4ifTSa3-101" target="NJpbKBPvi1NDH4ifTSa3-88" edge="1">
          <mxGeometry relative="1" as="geometry" />
        </mxCell>
        <mxCell id="NJpbKBPvi1NDH4ifTSa3-101" value="Name" style="ellipse;whiteSpace=wrap;html=1;strokeColor=default;fontStyle=0" parent="1" vertex="1">
          <mxGeometry x="680" y="-490" width="40" height="30" as="geometry" />
        </mxCell>
        <mxCell id="NJpbKBPvi1NDH4ifTSa3-102" style="edgeStyle=orthogonalEdgeStyle;rounded=0;orthogonalLoop=1;jettySize=auto;html=1;entryX=0.916;entryY=0.028;entryDx=0;entryDy=0;entryPerimeter=0;" parent="1" source="NJpbKBPvi1NDH4ifTSa3-76" target="NJpbKBPvi1NDH4ifTSa3-74" edge="1">
          <mxGeometry relative="1" as="geometry" />
        </mxCell>
        <mxCell id="NJpbKBPvi1NDH4ifTSa3-103" style="edgeStyle=orthogonalEdgeStyle;rounded=0;orthogonalLoop=1;jettySize=auto;html=1;entryX=0.909;entryY=0.03;entryDx=0;entryDy=0;entryPerimeter=0;" parent="1" source="NJpbKBPvi1NDH4ifTSa3-90" target="NJpbKBPvi1NDH4ifTSa3-88" edge="1">
          <mxGeometry relative="1" as="geometry" />
        </mxCell>
        <mxCell id="NJpbKBPvi1NDH4ifTSa3-104" value="Invitation&amp;nbsp;" style="ellipse;whiteSpace=wrap;html=1;align=center;fontStyle=0;" parent="1" vertex="1">
          <mxGeometry x="590" y="-445" width="60" height="40" as="geometry" />
        </mxCell>
        <mxCell id="NJpbKBPvi1NDH4ifTSa3-105" style="edgeStyle=orthogonalEdgeStyle;rounded=0;orthogonalLoop=1;jettySize=auto;html=1;entryX=0.108;entryY=0.065;entryDx=0;entryDy=0;entryPerimeter=0;" parent="1" source="NJpbKBPvi1NDH4ifTSa3-104" target="NJpbKBPvi1NDH4ifTSa3-88" edge="1">
          <mxGeometry relative="1" as="geometry">
            <Array as="points">
              <mxPoint x="620" y="-400" />
              <mxPoint x="665" y="-400" />
              <mxPoint x="665" y="-390" />
              <mxPoint x="665" y="-390" />
            </Array>
          </mxGeometry>
        </mxCell>
        <mxCell id="NJpbKBPvi1NDH4ifTSa3-106" value="Deal with" style="shape=rhombus;perimeter=rhombusPerimeter;whiteSpace=wrap;html=1;align=center;" parent="1" vertex="1">
          <mxGeometry x="355" y="70" width="120" height="60" as="geometry" />
        </mxCell>
        <mxCell id="NJpbKBPvi1NDH4ifTSa3-113" style="edgeStyle=orthogonalEdgeStyle;rounded=0;orthogonalLoop=1;jettySize=auto;html=1;entryX=0.002;entryY=0.676;entryDx=0;entryDy=0;entryPerimeter=0;" parent="1" source="NJpbKBPvi1NDH4ifTSa3-106" target="NJpbKBPvi1NDH4ifTSa3-19" edge="1">
          <mxGeometry relative="1" as="geometry" />
        </mxCell>
        <mxCell id="NJpbKBPvi1NDH4ifTSa3-114" value="1" style="text;html=1;align=center;verticalAlign=middle;resizable=0;points=[];autosize=1;strokeColor=none;fillColor=none;" parent="1" vertex="1">
          <mxGeometry x="340" y="75" width="30" height="30" as="geometry" />
        </mxCell>
        <mxCell id="NJpbKBPvi1NDH4ifTSa3-115" value="1" style="text;html=1;align=center;verticalAlign=middle;resizable=0;points=[];autosize=1;strokeColor=none;fillColor=none;" parent="1" vertex="1">
          <mxGeometry x="415" y="28" width="30" height="30" as="geometry" />
        </mxCell>
        <mxCell id="NJpbKBPvi1NDH4ifTSa3-116" value="1" style="text;html=1;align=center;verticalAlign=middle;resizable=0;points=[];autosize=1;strokeColor=none;fillColor=none;" parent="1" vertex="1">
          <mxGeometry x="470" y="72.5" width="30" height="30" as="geometry" />
        </mxCell>
        <mxCell id="NJpbKBPvi1NDH4ifTSa3-123" value="" style="endArrow=classic;html=1;rounded=0;entryX=0;entryY=1;entryDx=0;entryDy=0;exitX=1;exitY=0.5;exitDx=0;exitDy=0;" parent="1" source="qezSa775ZFS_Le1PgmAF-6" target="NJpbKBPvi1NDH4ifTSa3-19" edge="1">
          <mxGeometry width="50" height="50" relative="1" as="geometry">
            <mxPoint x="485" y="200" as="sourcePoint" />
            <mxPoint x="535" y="140" as="targetPoint" />
          </mxGeometry>
        </mxCell>
        <mxCell id="NJpbKBPvi1NDH4ifTSa3-124" value="" style="endArrow=classic;html=1;rounded=0;exitX=0;exitY=0.5;exitDx=0;exitDy=0;entryX=1;entryY=0.5;entryDx=0;entryDy=0;" parent="1" source="qezSa775ZFS_Le1PgmAF-6" target="NJpbKBPvi1NDH4ifTSa3-1" edge="1">
          <mxGeometry width="50" height="50" relative="1" as="geometry">
            <mxPoint x="365" y="200" as="sourcePoint" />
            <mxPoint x="340" y="280" as="targetPoint" />
          </mxGeometry>
        </mxCell>
        <mxCell id="NJpbKBPvi1NDH4ifTSa3-125" value="" style="endArrow=classic;html=1;rounded=0;exitX=0.009;exitY=0.894;exitDx=0;exitDy=0;exitPerimeter=0;entryX=1;entryY=0.5;entryDx=0;entryDy=0;" parent="1" source="NJpbKBPvi1NDH4ifTSa3-19" target="qezSa775ZFS_Le1PgmAF-6" edge="1">
          <mxGeometry width="50" height="50" relative="1" as="geometry">
            <mxPoint x="550" y="290" as="sourcePoint" />
            <mxPoint x="466.2096830131095" y="190.60484150655475" as="targetPoint" />
          </mxGeometry>
        </mxCell>
        <mxCell id="NJpbKBPvi1NDH4ifTSa3-126" value="M" style="text;html=1;align=center;verticalAlign=middle;resizable=0;points=[];autosize=1;strokeColor=none;fillColor=none;" parent="1" vertex="1">
          <mxGeometry x="345" y="168" width="30" height="30" as="geometry" />
        </mxCell>
        <mxCell id="NJpbKBPvi1NDH4ifTSa3-127" value="M" style="text;html=1;align=center;verticalAlign=middle;resizable=0;points=[];autosize=1;strokeColor=none;fillColor=none;" parent="1" vertex="1">
          <mxGeometry x="465" y="158" width="30" height="30" as="geometry" />
        </mxCell>
        <mxCell id="NJpbKBPvi1NDH4ifTSa3-128" value="Invite" style="shape=rhombus;perimeter=rhombusPerimeter;whiteSpace=wrap;html=1;align=center;" parent="1" vertex="1">
          <mxGeometry x="800" y="-240" width="120" height="60" as="geometry" />
        </mxCell>
        <mxCell id="NJpbKBPvi1NDH4ifTSa3-129" style="edgeStyle=orthogonalEdgeStyle;rounded=0;orthogonalLoop=1;jettySize=auto;html=1;entryX=0.35;entryY=0.05;entryDx=0;entryDy=0;entryPerimeter=0;" parent="1" source="NJpbKBPvi1NDH4ifTSa3-128" target="NJpbKBPvi1NDH4ifTSa3-19" edge="1">
          <mxGeometry relative="1" as="geometry" />
        </mxCell>
        <mxCell id="NJpbKBPvi1NDH4ifTSa3-130" value="" style="endArrow=classic;html=1;rounded=0;exitX=0.5;exitY=0;exitDx=0;exitDy=0;entryX=0.628;entryY=0.979;entryDx=0;entryDy=0;entryPerimeter=0;" parent="1" source="NJpbKBPvi1NDH4ifTSa3-128" target="NJpbKBPvi1NDH4ifTSa3-88" edge="1">
          <mxGeometry width="50" height="50" relative="1" as="geometry">
            <mxPoint x="560" y="-70" as="sourcePoint" />
            <mxPoint x="610" y="-120" as="targetPoint" />
          </mxGeometry>
        </mxCell>
        <mxCell id="NJpbKBPvi1NDH4ifTSa3-131" value="" style="endArrow=classic;html=1;rounded=0;entryX=0.094;entryY=0.014;entryDx=0;entryDy=0;entryPerimeter=0;exitX=0.677;exitY=1;exitDx=0;exitDy=0;exitPerimeter=0;" parent="1" source="NJpbKBPvi1NDH4ifTSa3-36" target="NJpbKBPvi1NDH4ifTSa3-19" edge="1">
          <mxGeometry width="50" height="50" relative="1" as="geometry">
            <mxPoint x="760" y="50" as="sourcePoint" />
            <mxPoint x="810" as="targetPoint" />
          </mxGeometry>
        </mxCell>
        <mxCell id="NJpbKBPvi1NDH4ifTSa3-132" value="" style="endArrow=classic;html=1;rounded=0;entryX=0.204;entryY=0.03;entryDx=0;entryDy=0;entryPerimeter=0;exitX=0.5;exitY=1;exitDx=0;exitDy=0;" parent="1" source="NJpbKBPvi1NDH4ifTSa3-27" target="NJpbKBPvi1NDH4ifTSa3-19" edge="1">
          <mxGeometry width="50" height="50" relative="1" as="geometry">
            <mxPoint x="797" y="55" as="sourcePoint" />
            <mxPoint x="841" y="76" as="targetPoint" />
          </mxGeometry>
        </mxCell>
        <mxCell id="NJpbKBPvi1NDH4ifTSa3-133" value="" style="endArrow=classic;html=1;rounded=0;entryX=0.394;entryY=0.048;entryDx=0;entryDy=0;entryPerimeter=0;exitX=0.272;exitY=0.97;exitDx=0;exitDy=0;exitPerimeter=0;" parent="1" source="NJpbKBPvi1NDH4ifTSa3-23" target="NJpbKBPvi1NDH4ifTSa3-19" edge="1">
          <mxGeometry width="50" height="50" relative="1" as="geometry">
            <mxPoint x="807" y="65" as="sourcePoint" />
            <mxPoint x="851" y="86" as="targetPoint" />
          </mxGeometry>
        </mxCell>
        <mxCell id="NJpbKBPvi1NDH4ifTSa3-134" value="" style="endArrow=classic;html=1;rounded=0;entryX=0.576;entryY=0.061;entryDx=0;entryDy=0;entryPerimeter=0;exitX=0.09;exitY=0.833;exitDx=0;exitDy=0;exitPerimeter=0;" parent="1" source="NJpbKBPvi1NDH4ifTSa3-30" target="NJpbKBPvi1NDH4ifTSa3-19" edge="1">
          <mxGeometry width="50" height="50" relative="1" as="geometry">
            <mxPoint x="817" y="75" as="sourcePoint" />
            <mxPoint x="861" y="96" as="targetPoint" />
          </mxGeometry>
        </mxCell>
        <mxCell id="NJpbKBPvi1NDH4ifTSa3-135" value="" style="endArrow=classic;html=1;rounded=0;entryX=0.997;entryY=0.582;entryDx=0;entryDy=0;entryPerimeter=0;exitX=0.06;exitY=0.235;exitDx=0;exitDy=0;exitPerimeter=0;" parent="1" source="NJpbKBPvi1NDH4ifTSa3-35" target="NJpbKBPvi1NDH4ifTSa3-19" edge="1">
          <mxGeometry width="50" height="50" relative="1" as="geometry">
            <mxPoint x="827" y="85" as="sourcePoint" />
            <mxPoint x="871" y="106" as="targetPoint" />
          </mxGeometry>
        </mxCell>
        <mxCell id="NJpbKBPvi1NDH4ifTSa3-136" value="" style="endArrow=classic;html=1;rounded=0;entryX=1;entryY=0.855;entryDx=0;entryDy=0;entryPerimeter=0;exitX=0.383;exitY=0.038;exitDx=0;exitDy=0;exitPerimeter=0;" parent="1" source="NJpbKBPvi1NDH4ifTSa3-37" target="NJpbKBPvi1NDH4ifTSa3-19" edge="1">
          <mxGeometry width="50" height="50" relative="1" as="geometry">
            <mxPoint x="837" y="95" as="sourcePoint" />
            <mxPoint x="881" y="116" as="targetPoint" />
          </mxGeometry>
        </mxCell>
        <mxCell id="NJpbKBPvi1NDH4ifTSa3-137" value="M" style="text;html=1;align=center;verticalAlign=middle;resizable=0;points=[];autosize=1;strokeColor=none;fillColor=none;" parent="1" vertex="1">
          <mxGeometry x="825" y="-192" width="30" height="30" as="geometry" />
        </mxCell>
        <mxCell id="NJpbKBPvi1NDH4ifTSa3-138" value="M" style="text;html=1;align=center;verticalAlign=middle;resizable=0;points=[];autosize=1;strokeColor=none;fillColor=none;" parent="1" vertex="1">
          <mxGeometry x="835" y="-272" width="30" height="30" as="geometry" />
        </mxCell>
        <mxCell id="NJpbKBPvi1NDH4ifTSa3-139" value="Widding" style="rounded=0;whiteSpace=wrap;html=1;" parent="1" vertex="1">
          <mxGeometry x="310" y="-350" width="120" height="50" as="geometry" />
        </mxCell>
        <mxCell id="NJpbKBPvi1NDH4ifTSa3-140" value="ID" style="ellipse;whiteSpace=wrap;html=1;strokeColor=default;fontStyle=4" parent="1" vertex="1">
          <mxGeometry x="430" y="-415" width="40" height="30" as="geometry" />
        </mxCell>
        <mxCell id="NJpbKBPvi1NDH4ifTSa3-142" value="Service" style="ellipse;whiteSpace=wrap;html=1;strokeColor=default;fontStyle=0" parent="1" vertex="1">
          <mxGeometry x="280" y="-465" width="70" height="40" as="geometry" />
        </mxCell>
        <mxCell id="NJpbKBPvi1NDH4ifTSa3-143" value="Time" style="ellipse;whiteSpace=wrap;html=1;strokeColor=default;fontStyle=0" parent="1" vertex="1">
          <mxGeometry x="407.5" y="-465" width="45" height="40" as="geometry" />
        </mxCell>
        <mxCell id="NJpbKBPvi1NDH4ifTSa3-148" value="Theme" style="ellipse;whiteSpace=wrap;html=1;strokeColor=default;fontStyle=0" parent="1" vertex="1">
          <mxGeometry x="355" y="-455" width="45" height="35" as="geometry" />
        </mxCell>
        <mxCell id="NJpbKBPvi1NDH4ifTSa3-150" value="Location" style="ellipse;shape=doubleEllipse;margin=3;whiteSpace=wrap;html=1;align=center;" parent="1" vertex="1">
          <mxGeometry x="230" y="-425" width="70" height="40" as="geometry" />
        </mxCell>
        <mxCell id="NJpbKBPvi1NDH4ifTSa3-151" value="" style="endArrow=classic;html=1;rounded=0;exitX=0.371;exitY=1.013;exitDx=0;exitDy=0;exitPerimeter=0;entryX=0.842;entryY=0.076;entryDx=0;entryDy=0;entryPerimeter=0;" parent="1" source="NJpbKBPvi1NDH4ifTSa3-140" target="NJpbKBPvi1NDH4ifTSa3-139" edge="1">
          <mxGeometry width="50" height="50" relative="1" as="geometry">
            <mxPoint x="320" y="-350" as="sourcePoint" />
            <mxPoint x="370" y="-400" as="targetPoint" />
          </mxGeometry>
        </mxCell>
        <mxCell id="NJpbKBPvi1NDH4ifTSa3-152" value="" style="endArrow=classic;html=1;rounded=0;exitX=0.5;exitY=1;exitDx=0;exitDy=0;entryX=0.677;entryY=0.008;entryDx=0;entryDy=0;entryPerimeter=0;" parent="1" source="NJpbKBPvi1NDH4ifTSa3-143" target="NJpbKBPvi1NDH4ifTSa3-139" edge="1">
          <mxGeometry width="50" height="50" relative="1" as="geometry">
            <mxPoint x="330" y="-340" as="sourcePoint" />
            <mxPoint x="380" y="-390" as="targetPoint" />
          </mxGeometry>
        </mxCell>
        <mxCell id="NJpbKBPvi1NDH4ifTSa3-153" value="" style="endArrow=classic;html=1;rounded=0;exitX=0.5;exitY=1;exitDx=0;exitDy=0;entryX=0.625;entryY=0.1;entryDx=0;entryDy=0;entryPerimeter=0;" parent="1" source="NJpbKBPvi1NDH4ifTSa3-148" target="NJpbKBPvi1NDH4ifTSa3-139" edge="1">
          <mxGeometry width="50" height="50" relative="1" as="geometry">
            <mxPoint x="340" y="-330" as="sourcePoint" />
            <mxPoint x="390" y="-380" as="targetPoint" />
          </mxGeometry>
        </mxCell>
        <mxCell id="NJpbKBPvi1NDH4ifTSa3-154" value="" style="endArrow=classic;html=1;rounded=0;exitX=0.643;exitY=0.971;exitDx=0;exitDy=0;exitPerimeter=0;entryX=0.436;entryY=0.008;entryDx=0;entryDy=0;entryPerimeter=0;" parent="1" source="NJpbKBPvi1NDH4ifTSa3-142" target="NJpbKBPvi1NDH4ifTSa3-139" edge="1">
          <mxGeometry width="50" height="50" relative="1" as="geometry">
            <mxPoint x="350" y="-320" as="sourcePoint" />
            <mxPoint x="400" y="-370" as="targetPoint" />
          </mxGeometry>
        </mxCell>
        <mxCell id="NJpbKBPvi1NDH4ifTSa3-155" value="" style="endArrow=classic;html=1;rounded=0;exitX=0.737;exitY=0.962;exitDx=0;exitDy=0;exitPerimeter=0;entryX=0.296;entryY=0.015;entryDx=0;entryDy=0;entryPerimeter=0;" parent="1" source="NJpbKBPvi1NDH4ifTSa3-150" target="NJpbKBPvi1NDH4ifTSa3-139" edge="1">
          <mxGeometry width="50" height="50" relative="1" as="geometry">
            <mxPoint x="360" y="-310" as="sourcePoint" />
            <mxPoint x="410" y="-360" as="targetPoint" />
          </mxGeometry>
        </mxCell>
        <mxCell id="NJpbKBPvi1NDH4ifTSa3-156" value="Preparing" style="shape=rhombus;perimeter=rhombusPerimeter;whiteSpace=wrap;html=1;align=center;" parent="1" vertex="1">
          <mxGeometry x="170" y="-302" width="90" height="42" as="geometry" />
        </mxCell>
        <mxCell id="NJpbKBPvi1NDH4ifTSa3-157" value="" style="endArrow=classic;html=1;rounded=0;exitX=0;exitY=0.5;exitDx=0;exitDy=0;entryX=1;entryY=0.25;entryDx=0;entryDy=0;" parent="1" source="NJpbKBPvi1NDH4ifTSa3-156" target="NJpbKBPvi1NDH4ifTSa3-74" edge="1">
          <mxGeometry width="50" height="50" relative="1" as="geometry">
            <mxPoint x="190" y="-230" as="sourcePoint" />
            <mxPoint x="240" y="-280" as="targetPoint" />
          </mxGeometry>
        </mxCell>
        <mxCell id="NJpbKBPvi1NDH4ifTSa3-158" value="" style="endArrow=classic;html=1;rounded=0;exitX=1;exitY=0.5;exitDx=0;exitDy=0;entryX=0.356;entryY=0.999;entryDx=0;entryDy=0;entryPerimeter=0;" parent="1" source="NJpbKBPvi1NDH4ifTSa3-156" target="NJpbKBPvi1NDH4ifTSa3-139" edge="1">
          <mxGeometry width="50" height="50" relative="1" as="geometry">
            <mxPoint x="190" y="-232" as="sourcePoint" />
            <mxPoint x="111" y="-232" as="targetPoint" />
          </mxGeometry>
        </mxCell>
        <mxCell id="NJpbKBPvi1NDH4ifTSa3-159" value="M" style="text;html=1;align=center;verticalAlign=middle;resizable=0;points=[];autosize=1;strokeColor=none;fillColor=none;" parent="1" vertex="1">
          <mxGeometry x="145" y="-302" width="30" height="30" as="geometry" />
        </mxCell>
        <mxCell id="NJpbKBPvi1NDH4ifTSa3-160" value="M" style="text;html=1;align=center;verticalAlign=middle;resizable=0;points=[];autosize=1;strokeColor=none;fillColor=none;" parent="1" vertex="1">
          <mxGeometry x="250" y="-302" width="30" height="30" as="geometry" />
        </mxCell>
        <mxCell id="NJpbKBPvi1NDH4ifTSa3-161" value="Supervised" style="shape=rhombus;perimeter=rhombusPerimeter;whiteSpace=wrap;html=1;align=center;" parent="1" vertex="1">
          <mxGeometry x="-188.75" y="-124" width="90" height="42" as="geometry" />
        </mxCell>
        <mxCell id="NJpbKBPvi1NDH4ifTSa3-162" value="" style="endArrow=classic;html=1;rounded=0;exitX=0.5;exitY=1;exitDx=0;exitDy=0;entryX=0.183;entryY=0.005;entryDx=0;entryDy=0;entryPerimeter=0;" parent="1" source="NJpbKBPvi1NDH4ifTSa3-161" target="NJpbKBPvi1NDH4ifTSa3-1" edge="1">
          <mxGeometry width="50" height="50" relative="1" as="geometry">
            <mxPoint x="-180" y="-10" as="sourcePoint" />
            <mxPoint x="-130" y="-60" as="targetPoint" />
          </mxGeometry>
        </mxCell>
        <mxCell id="NJpbKBPvi1NDH4ifTSa3-163" value="" style="endArrow=classic;html=1;rounded=0;exitX=0.5;exitY=1;exitDx=0;exitDy=0;entryX=0.321;entryY=0.056;entryDx=0;entryDy=0;entryPerimeter=0;" parent="1" source="NJpbKBPvi1NDH4ifTSa3-4" target="NJpbKBPvi1NDH4ifTSa3-1" edge="1">
          <mxGeometry width="50" height="50" relative="1" as="geometry">
            <mxPoint x="-170" as="sourcePoint" />
            <mxPoint x="-120" y="-50" as="targetPoint" />
          </mxGeometry>
        </mxCell>
        <mxCell id="NJpbKBPvi1NDH4ifTSa3-164" value="" style="endArrow=classic;html=1;rounded=0;exitX=0.989;exitY=0.712;exitDx=0;exitDy=0;exitPerimeter=0;entryX=0;entryY=0;entryDx=0;entryDy=0;" parent="1" source="NJpbKBPvi1NDH4ifTSa3-6" target="NJpbKBPvi1NDH4ifTSa3-1" edge="1">
          <mxGeometry width="50" height="50" relative="1" as="geometry">
            <mxPoint x="-160" y="10" as="sourcePoint" />
            <mxPoint x="-110" y="-40" as="targetPoint" />
          </mxGeometry>
        </mxCell>
        <mxCell id="NJpbKBPvi1NDH4ifTSa3-165" value="" style="endArrow=classic;html=1;rounded=0;exitX=0.5;exitY=1;exitDx=0;exitDy=0;entryX=0.623;entryY=0.011;entryDx=0;entryDy=0;entryPerimeter=0;" parent="1" source="NJpbKBPvi1NDH4ifTSa3-5" target="NJpbKBPvi1NDH4ifTSa3-1" edge="1">
          <mxGeometry width="50" height="50" relative="1" as="geometry">
            <mxPoint x="-150" y="20" as="sourcePoint" />
            <mxPoint x="-100" y="-30" as="targetPoint" />
          </mxGeometry>
        </mxCell>
        <mxCell id="NJpbKBPvi1NDH4ifTSa3-166" value="" style="endArrow=classic;html=1;rounded=0;exitX=0.5;exitY=1;exitDx=0;exitDy=0;entryX=0.802;entryY=0.062;entryDx=0;entryDy=0;entryPerimeter=0;" parent="1" source="NJpbKBPvi1NDH4ifTSa3-2" target="NJpbKBPvi1NDH4ifTSa3-1" edge="1">
          <mxGeometry width="50" height="50" relative="1" as="geometry">
            <mxPoint x="63" y="-10" as="sourcePoint" />
            <mxPoint x="45" y="86" as="targetPoint" />
          </mxGeometry>
        </mxCell>
        <mxCell id="NJpbKBPvi1NDH4ifTSa3-167" value="" style="endArrow=classic;html=1;rounded=0;exitX=0.5;exitY=0;exitDx=0;exitDy=0;entryX=0;entryY=0.5;entryDx=0;entryDy=0;" parent="1" source="NJpbKBPvi1NDH4ifTSa3-161" target="NJpbKBPvi1NDH4ifTSa3-74" edge="1">
          <mxGeometry width="50" height="50" relative="1" as="geometry">
            <mxPoint x="73" as="sourcePoint" />
            <mxPoint x="55" y="96" as="targetPoint" />
          </mxGeometry>
        </mxCell>
        <mxCell id="NJpbKBPvi1NDH4ifTSa3-168" value="M" style="text;html=1;align=center;verticalAlign=middle;resizable=0;points=[];autosize=1;strokeColor=none;fillColor=none;" parent="1" vertex="1">
          <mxGeometry x="-155" y="-152" width="30" height="30" as="geometry" />
        </mxCell>
        <mxCell id="NJpbKBPvi1NDH4ifTSa3-169" value="1" style="text;html=1;align=center;verticalAlign=middle;resizable=0;points=[];autosize=1;strokeColor=none;fillColor=none;" parent="1" vertex="1">
          <mxGeometry x="-158.75" y="-80" width="30" height="30" as="geometry" />
        </mxCell>
        <mxCell id="NJpbKBPvi1NDH4ifTSa3-171" style="edgeStyle=orthogonalEdgeStyle;rounded=0;orthogonalLoop=1;jettySize=auto;html=1;entryX=1;entryY=0.5;entryDx=0;entryDy=0;" parent="1" source="NJpbKBPvi1NDH4ifTSa3-170" target="NJpbKBPvi1NDH4ifTSa3-139" edge="1">
          <mxGeometry relative="1" as="geometry" />
        </mxCell>
        <mxCell id="NJpbKBPvi1NDH4ifTSa3-170" value="Celebrate" style="shape=rhombus;perimeter=rhombusPerimeter;whiteSpace=wrap;html=1;align=center;" parent="1" vertex="1">
          <mxGeometry x="490" y="-346" width="90" height="42" as="geometry" />
        </mxCell>
        <mxCell id="NJpbKBPvi1NDH4ifTSa3-173" value="" style="endArrow=classic;html=1;rounded=0;entryX=0;entryY=0.5;entryDx=0;entryDy=0;exitX=1;exitY=0.5;exitDx=0;exitDy=0;" parent="1" source="NJpbKBPvi1NDH4ifTSa3-170" target="NJpbKBPvi1NDH4ifTSa3-88" edge="1">
          <mxGeometry width="50" height="50" relative="1" as="geometry">
            <mxPoint x="570" y="-270" as="sourcePoint" />
            <mxPoint x="620" y="-320" as="targetPoint" />
          </mxGeometry>
        </mxCell>
        <mxCell id="NJpbKBPvi1NDH4ifTSa3-174" value="1" style="text;html=1;align=center;verticalAlign=middle;resizable=0;points=[];autosize=1;strokeColor=none;fillColor=none;" parent="1" vertex="1">
          <mxGeometry x="465" y="-352" width="30" height="30" as="geometry" />
        </mxCell>
        <mxCell id="NJpbKBPvi1NDH4ifTSa3-175" value="M" style="text;html=1;align=center;verticalAlign=middle;resizable=0;points=[];autosize=1;strokeColor=none;fillColor=none;" parent="1" vertex="1">
          <mxGeometry x="565" y="-352" width="30" height="30" as="geometry" />
        </mxCell>
        <mxCell id="NJpbKBPvi1NDH4ifTSa3-177" value="" style="endArrow=classic;html=1;rounded=0;exitX=0.372;exitY=1.033;exitDx=0;exitDy=0;entryX=0.5;entryY=0;entryDx=0;entryDy=0;exitPerimeter=0;" parent="1" source="NJpbKBPvi1NDH4ifTSa3-57" target="NJpbKBPvi1NDH4ifTSa3-106" edge="1">
          <mxGeometry width="50" height="50" relative="1" as="geometry">
            <mxPoint x="390" y="-40" as="sourcePoint" />
            <mxPoint x="440" y="-90" as="targetPoint" />
          </mxGeometry>
        </mxCell>
        <mxCell id="NJpbKBPvi1NDH4ifTSa3-178" value="Design preparation" style="shape=rhombus;perimeter=rhombusPerimeter;whiteSpace=wrap;html=1;align=center;" parent="1" vertex="1">
          <mxGeometry x="130" y="-155" width="95" height="87" as="geometry" />
        </mxCell>
        <mxCell id="NJpbKBPvi1NDH4ifTSa3-179" value="" style="endArrow=classic;html=1;rounded=0;exitX=1;exitY=0;exitDx=0;exitDy=0;entryX=0.5;entryY=1;entryDx=0;entryDy=0;" parent="1" source="NJpbKBPvi1NDH4ifTSa3-1" target="NJpbKBPvi1NDH4ifTSa3-178" edge="1">
          <mxGeometry width="50" height="50" relative="1" as="geometry">
            <mxPoint x="250" y="-60" as="sourcePoint" />
            <mxPoint x="300" y="-110" as="targetPoint" />
          </mxGeometry>
        </mxCell>
        <mxCell id="NJpbKBPvi1NDH4ifTSa3-180" value="" style="endArrow=classic;html=1;rounded=0;exitX=0.5;exitY=0;exitDx=0;exitDy=0;entryX=0.5;entryY=1;entryDx=0;entryDy=0;" parent="1" source="NJpbKBPvi1NDH4ifTSa3-178" target="NJpbKBPvi1NDH4ifTSa3-139" edge="1">
          <mxGeometry width="50" height="50" relative="1" as="geometry">
            <mxPoint x="90" y="85" as="sourcePoint" />
            <mxPoint x="188" y="-58" as="targetPoint" />
          </mxGeometry>
        </mxCell>
        <mxCell id="NJpbKBPvi1NDH4ifTSa3-181" value="Get married" style="shape=rhombus;perimeter=rhombusPerimeter;whiteSpace=wrap;html=1;align=center;" parent="1" vertex="1">
          <mxGeometry x="625" y="-200" width="120" height="55" as="geometry" />
        </mxCell>
        <mxCell id="NJpbKBPvi1NDH4ifTSa3-182" value="" style="endArrow=classic;html=1;rounded=0;exitX=0.5;exitY=0;exitDx=0;exitDy=0;entryX=1;entryY=1;entryDx=0;entryDy=0;" parent="1" source="NJpbKBPvi1NDH4ifTSa3-181" target="NJpbKBPvi1NDH4ifTSa3-139" edge="1">
          <mxGeometry width="50" height="50" relative="1" as="geometry">
            <mxPoint x="520" y="-120" as="sourcePoint" />
            <mxPoint x="570" y="-170" as="targetPoint" />
          </mxGeometry>
        </mxCell>
        <mxCell id="NJpbKBPvi1NDH4ifTSa3-183" value="" style="endArrow=classic;html=1;rounded=0;exitX=0;exitY=0.25;exitDx=0;exitDy=0;entryX=0.5;entryY=1;entryDx=0;entryDy=0;" parent="1" source="NJpbKBPvi1NDH4ifTSa3-19" target="NJpbKBPvi1NDH4ifTSa3-181" edge="1">
          <mxGeometry width="50" height="50" relative="1" as="geometry">
            <mxPoint x="660" y="-80" as="sourcePoint" />
            <mxPoint x="440" y="-290" as="targetPoint" />
          </mxGeometry>
        </mxCell>
        <mxCell id="NJpbKBPvi1NDH4ifTSa3-184" value="1&lt;div&gt;&lt;br&gt;&lt;/div&gt;" style="text;html=1;align=center;verticalAlign=middle;resizable=0;points=[];autosize=1;strokeColor=none;fillColor=none;" parent="1" vertex="1">
          <mxGeometry x="697.46" y="-145" width="30" height="40" as="geometry" />
        </mxCell>
        <mxCell id="NJpbKBPvi1NDH4ifTSa3-185" value="1" style="text;html=1;align=center;verticalAlign=middle;resizable=0;points=[];autosize=1;strokeColor=none;fillColor=none;" parent="1" vertex="1">
          <mxGeometry x="655" y="-235" width="30" height="30" as="geometry" />
        </mxCell>
        <mxCell id="NJpbKBPvi1NDH4ifTSa3-186" value="1" style="text;html=1;align=center;verticalAlign=middle;resizable=0;points=[];autosize=1;strokeColor=none;fillColor=none;" parent="1" vertex="1">
          <mxGeometry x="135" y="-82" width="30" height="30" as="geometry" />
        </mxCell>
        <mxCell id="NJpbKBPvi1NDH4ifTSa3-187" value="M" style="text;html=1;align=center;verticalAlign=middle;resizable=0;points=[];autosize=1;strokeColor=none;fillColor=none;" parent="1" vertex="1">
          <mxGeometry x="165" y="-182" width="30" height="30" as="geometry" />
        </mxCell>
        <mxCell id="NJpbKBPvi1NDH4ifTSa3-188" value="" style="endArrow=classic;html=1;rounded=0;entryX=1;entryY=0.25;entryDx=0;entryDy=0;exitX=0;exitY=0.5;exitDx=0;exitDy=0;" parent="1" source="NJpbKBPvi1NDH4ifTSa3-106" target="NJpbKBPvi1NDH4ifTSa3-1" edge="1">
          <mxGeometry width="50" height="50" relative="1" as="geometry">
            <mxPoint x="290" y="100" as="sourcePoint" />
            <mxPoint x="630" y="-160" as="targetPoint" />
          </mxGeometry>
        </mxCell>
        <mxCell id="NJpbKBPvi1NDH4ifTSa3-207" value="Wedding Service" style="rounded=0;whiteSpace=wrap;html=1;" parent="1" vertex="1">
          <mxGeometry x="495" y="390.5" width="120" height="50" as="geometry" />
        </mxCell>
        <mxCell id="NJpbKBPvi1NDH4ifTSa3-208" value="ID" style="ellipse;whiteSpace=wrap;html=1;strokeColor=default;fontStyle=4" parent="1" vertex="1">
          <mxGeometry x="615" y="325.5" width="40" height="30" as="geometry" />
        </mxCell>
        <mxCell id="NJpbKBPvi1NDH4ifTSa3-209" value="Quantity" style="ellipse;whiteSpace=wrap;html=1;strokeColor=default;fontStyle=0" parent="1" vertex="1">
          <mxGeometry x="485" y="295.5" width="50" height="40" as="geometry" />
        </mxCell>
        <mxCell id="NJpbKBPvi1NDH4ifTSa3-210" value="Cost" style="ellipse;whiteSpace=wrap;html=1;strokeColor=default;fontStyle=0" parent="1" vertex="1">
          <mxGeometry x="585" y="285.5" width="45" height="40" as="geometry" />
        </mxCell>
        <mxCell id="NJpbKBPvi1NDH4ifTSa3-211" value="Service" style="ellipse;whiteSpace=wrap;html=1;strokeColor=default;fontStyle=0" parent="1" vertex="1">
          <mxGeometry x="540" y="285.5" width="45" height="35" as="geometry" />
        </mxCell>
        <mxCell id="NJpbKBPvi1NDH4ifTSa3-212" value="" style="endArrow=classic;html=1;rounded=0;exitX=0.371;exitY=1.013;exitDx=0;exitDy=0;exitPerimeter=0;entryX=0.842;entryY=0.076;entryDx=0;entryDy=0;entryPerimeter=0;" parent="1" source="NJpbKBPvi1NDH4ifTSa3-208" target="NJpbKBPvi1NDH4ifTSa3-207" edge="1">
          <mxGeometry width="50" height="50" relative="1" as="geometry">
            <mxPoint x="505" y="390.5" as="sourcePoint" />
            <mxPoint x="555" y="340.5" as="targetPoint" />
          </mxGeometry>
        </mxCell>
        <mxCell id="NJpbKBPvi1NDH4ifTSa3-213" value="" style="endArrow=classic;html=1;rounded=0;exitX=0.5;exitY=1;exitDx=0;exitDy=0;entryX=0.677;entryY=0.008;entryDx=0;entryDy=0;entryPerimeter=0;" parent="1" source="NJpbKBPvi1NDH4ifTSa3-210" target="NJpbKBPvi1NDH4ifTSa3-207" edge="1">
          <mxGeometry width="50" height="50" relative="1" as="geometry">
            <mxPoint x="515" y="400.5" as="sourcePoint" />
            <mxPoint x="565" y="350.5" as="targetPoint" />
          </mxGeometry>
        </mxCell>
        <mxCell id="NJpbKBPvi1NDH4ifTSa3-214" value="" style="endArrow=classic;html=1;rounded=0;exitX=0.5;exitY=1;exitDx=0;exitDy=0;entryX=0.625;entryY=0.1;entryDx=0;entryDy=0;entryPerimeter=0;" parent="1" source="NJpbKBPvi1NDH4ifTSa3-211" target="NJpbKBPvi1NDH4ifTSa3-207" edge="1">
          <mxGeometry width="50" height="50" relative="1" as="geometry">
            <mxPoint x="525" y="410.5" as="sourcePoint" />
            <mxPoint x="575" y="360.5" as="targetPoint" />
          </mxGeometry>
        </mxCell>
        <mxCell id="NJpbKBPvi1NDH4ifTSa3-215" value="" style="endArrow=classic;html=1;rounded=0;exitX=0.643;exitY=0.971;exitDx=0;exitDy=0;exitPerimeter=0;entryX=0.436;entryY=0.008;entryDx=0;entryDy=0;entryPerimeter=0;" parent="1" source="NJpbKBPvi1NDH4ifTSa3-209" target="NJpbKBPvi1NDH4ifTSa3-207" edge="1">
          <mxGeometry width="50" height="50" relative="1" as="geometry">
            <mxPoint x="535" y="420.5" as="sourcePoint" />
            <mxPoint x="585" y="370.5" as="targetPoint" />
          </mxGeometry>
        </mxCell>
        <mxCell id="NJpbKBPvi1NDH4ifTSa3-216" value="" style="endArrow=classic;html=1;rounded=0;exitX=0.715;exitY=0.992;exitDx=0;exitDy=0;exitPerimeter=0;entryX=0.296;entryY=0.015;entryDx=0;entryDy=0;entryPerimeter=0;" parent="1" source="NJpbKBPvi1NDH4ifTSa3-217" target="NJpbKBPvi1NDH4ifTSa3-207" edge="1">
          <mxGeometry width="50" height="50" relative="1" as="geometry">
            <mxPoint x="466.59000000000015" y="353.98" as="sourcePoint" />
            <mxPoint x="595" y="380.5" as="targetPoint" />
          </mxGeometry>
        </mxCell>
        <mxCell id="NJpbKBPvi1NDH4ifTSa3-217" value="Type" style="ellipse;whiteSpace=wrap;html=1;strokeColor=default;fontStyle=0" parent="1" vertex="1">
          <mxGeometry x="435" y="320.5" width="50" height="35" as="geometry" />
        </mxCell>
        <mxCell id="NJpbKBPvi1NDH4ifTSa3-226" value="Service" style="shape=rhombus;perimeter=rhombusPerimeter;whiteSpace=wrap;html=1;align=center;" parent="1" vertex="1">
          <mxGeometry x="758.75" y="293" width="82.5" height="40" as="geometry" />
        </mxCell>
        <mxCell id="NJpbKBPvi1NDH4ifTSa3-227" value="" style="endArrow=classic;html=1;rounded=0;entryX=0.5;entryY=1;entryDx=0;entryDy=0;exitX=1;exitY=0.5;exitDx=0;exitDy=0;" parent="1" source="NJpbKBPvi1NDH4ifTSa3-226" target="NJpbKBPvi1NDH4ifTSa3-19" edge="1">
          <mxGeometry width="50" height="50" relative="1" as="geometry">
            <mxPoint x="890" y="300" as="sourcePoint" />
            <mxPoint x="880" y="300" as="targetPoint" />
          </mxGeometry>
        </mxCell>
        <mxCell id="NJpbKBPvi1NDH4ifTSa3-228" value="" style="endArrow=classic;html=1;rounded=0;exitX=1;exitY=0.5;exitDx=0;exitDy=0;entryX=0;entryY=0.5;entryDx=0;entryDy=0;" parent="1" source="NJpbKBPvi1NDH4ifTSa3-207" target="NJpbKBPvi1NDH4ifTSa3-226" edge="1">
          <mxGeometry width="50" height="50" relative="1" as="geometry">
            <mxPoint x="830" y="250" as="sourcePoint" />
            <mxPoint x="880" y="200" as="targetPoint" />
          </mxGeometry>
        </mxCell>
        <mxCell id="NJpbKBPvi1NDH4ifTSa3-229" value="M" style="text;html=1;align=center;verticalAlign=middle;resizable=0;points=[];autosize=1;strokeColor=none;fillColor=none;" parent="1" vertex="1">
          <mxGeometry x="805" y="248" width="30" height="30" as="geometry" />
        </mxCell>
        <mxCell id="NJpbKBPvi1NDH4ifTSa3-231" value="responsible" style="shape=rhombus;perimeter=rhombusPerimeter;whiteSpace=wrap;html=1;align=center;" parent="1" vertex="1">
          <mxGeometry x="157.5" y="218" width="102.5" height="52" as="geometry" />
        </mxCell>
        <mxCell id="NJpbKBPvi1NDH4ifTSa3-232" value="" style="endArrow=classic;html=1;rounded=0;exitX=1;exitY=0.5;exitDx=0;exitDy=0;entryX=0;entryY=0.25;entryDx=0;entryDy=0;" parent="1" source="NJpbKBPvi1NDH4ifTSa3-231" target="NJpbKBPvi1NDH4ifTSa3-207" edge="1">
          <mxGeometry width="50" height="50" relative="1" as="geometry">
            <mxPoint x="490" y="220" as="sourcePoint" />
            <mxPoint x="540" y="170" as="targetPoint" />
          </mxGeometry>
        </mxCell>
        <mxCell id="NJpbKBPvi1NDH4ifTSa3-233" value="" style="endArrow=classic;html=1;rounded=0;exitX=0;exitY=0.5;exitDx=0;exitDy=0;entryX=0.644;entryY=0.985;entryDx=0;entryDy=0;entryPerimeter=0;" parent="1" source="NJpbKBPvi1NDH4ifTSa3-231" target="NJpbKBPvi1NDH4ifTSa3-1" edge="1">
          <mxGeometry width="50" height="50" relative="1" as="geometry">
            <mxPoint x="490" y="220" as="sourcePoint" />
            <mxPoint x="540" y="170" as="targetPoint" />
          </mxGeometry>
        </mxCell>
        <mxCell id="NJpbKBPvi1NDH4ifTSa3-234" value="1" style="text;html=1;align=center;verticalAlign=middle;resizable=0;points=[];autosize=1;strokeColor=none;fillColor=none;" parent="1" vertex="1">
          <mxGeometry x="145" y="208" width="30" height="30" as="geometry" />
        </mxCell>
        <mxCell id="NJpbKBPvi1NDH4ifTSa3-237" value="M" style="text;html=1;align=center;verticalAlign=middle;resizable=0;points=[];autosize=1;strokeColor=none;fillColor=none;" parent="1" vertex="1">
          <mxGeometry x="245" y="218" width="30" height="30" as="geometry" />
        </mxCell>
        <mxCell id="NJpbKBPvi1NDH4ifTSa3-238" value="" style="endArrow=classic;html=1;rounded=0;exitX=0.5;exitY=1;exitDx=0;exitDy=0;entryX=1;entryY=0.75;entryDx=0;entryDy=0;" parent="1" source="NJpbKBPvi1NDH4ifTSa3-226" target="NJpbKBPvi1NDH4ifTSa3-88" edge="1">
          <mxGeometry width="50" height="50" relative="1" as="geometry">
            <mxPoint x="830" y="-40" as="sourcePoint" />
            <mxPoint x="880" y="-90" as="targetPoint" />
            <Array as="points">
              <mxPoint x="1050" y="240" />
              <mxPoint x="1100" />
              <mxPoint x="970" y="-210" />
            </Array>
          </mxGeometry>
        </mxCell>
        <mxCell id="NJpbKBPvi1NDH4ifTSa3-239" value="M" style="text;html=1;align=center;verticalAlign=middle;resizable=0;points=[];autosize=1;strokeColor=none;fillColor=none;" parent="1" vertex="1">
          <mxGeometry x="734.96" y="288" width="30" height="30" as="geometry" />
        </mxCell>
        <mxCell id="NJpbKBPvi1NDH4ifTSa3-240" value="M" style="text;html=1;align=center;verticalAlign=middle;resizable=0;points=[];autosize=1;strokeColor=none;fillColor=none;" parent="1" vertex="1">
          <mxGeometry x="845" y="288" width="30" height="30" as="geometry" />
        </mxCell>
        <mxCell id="qezSa775ZFS_Le1PgmAF-1" value="Regester" style="shape=rhombus;perimeter=rhombusPerimeter;whiteSpace=wrap;html=1;align=center;" parent="1" vertex="1">
          <mxGeometry x="560" y="-37.5" width="120" height="55" as="geometry" />
        </mxCell>
        <mxCell id="qezSa775ZFS_Le1PgmAF-2" value="" style="endArrow=classic;html=1;rounded=0;exitX=0;exitY=0.5;exitDx=0;exitDy=0;entryX=1;entryY=0.5;entryDx=0;entryDy=0;" parent="1" source="qezSa775ZFS_Le1PgmAF-1" target="NJpbKBPvi1NDH4ifTSa3-57" edge="1">
          <mxGeometry width="50" height="50" relative="1" as="geometry">
            <mxPoint x="620" y="-100" as="sourcePoint" />
            <mxPoint x="670" y="-150" as="targetPoint" />
          </mxGeometry>
        </mxCell>
        <mxCell id="qezSa775ZFS_Le1PgmAF-3" value="" style="endArrow=classic;html=1;rounded=0;exitX=1;exitY=0.5;exitDx=0;exitDy=0;entryX=0;entryY=0.5;entryDx=0;entryDy=0;" parent="1" source="qezSa775ZFS_Le1PgmAF-1" target="NJpbKBPvi1NDH4ifTSa3-19" edge="1">
          <mxGeometry width="50" height="50" relative="1" as="geometry">
            <mxPoint x="570" as="sourcePoint" />
            <mxPoint x="500" y="-15" as="targetPoint" />
          </mxGeometry>
        </mxCell>
        <mxCell id="qezSa775ZFS_Le1PgmAF-4" value="1" style="text;html=1;align=center;verticalAlign=middle;resizable=0;points=[];autosize=1;strokeColor=none;fillColor=none;" parent="1" vertex="1">
          <mxGeometry x="535" y="-32" width="30" height="30" as="geometry" />
        </mxCell>
        <mxCell id="qezSa775ZFS_Le1PgmAF-5" value="1" style="text;html=1;align=center;verticalAlign=middle;resizable=0;points=[];autosize=1;strokeColor=none;fillColor=none;" parent="1" vertex="1">
          <mxGeometry x="665" y="-32" width="30" height="30" as="geometry" />
        </mxCell>
        <mxCell id="qezSa775ZFS_Le1PgmAF-6" value="Payment" style="shape=rhombus;perimeter=rhombusPerimeter;whiteSpace=wrap;html=1;align=center;" parent="1" vertex="1">
          <mxGeometry x="367.5" y="168" width="97.5" height="52" as="geometry" />
        </mxCell>
        <mxCell id="qezSa775ZFS_Le1PgmAF-7" value="Check order" style="shape=rhombus;perimeter=rhombusPerimeter;whiteSpace=wrap;html=1;align=center;" parent="1" vertex="1">
          <mxGeometry x="222.5" y="-28.75" width="57.5" height="77.5" as="geometry" />
        </mxCell>
        <mxCell id="qezSa775ZFS_Le1PgmAF-8" value="" style="endArrow=classic;html=1;rounded=0;exitX=0;exitY=0.5;exitDx=0;exitDy=0;entryX=1;entryY=0.25;entryDx=0;entryDy=0;" parent="1" source="qezSa775ZFS_Le1PgmAF-7" target="NJpbKBPvi1NDH4ifTSa3-1" edge="1">
          <mxGeometry width="50" height="50" relative="1" as="geometry">
            <mxPoint x="400" y="50" as="sourcePoint" />
            <mxPoint x="450" as="targetPoint" />
          </mxGeometry>
        </mxCell>
        <mxCell id="qezSa775ZFS_Le1PgmAF-9" value="" style="endArrow=classic;html=1;rounded=0;exitX=1;exitY=0.5;exitDx=0;exitDy=0;entryX=0;entryY=0.75;entryDx=0;entryDy=0;" parent="1" source="qezSa775ZFS_Le1PgmAF-7" target="NJpbKBPvi1NDH4ifTSa3-57" edge="1">
          <mxGeometry width="50" height="50" relative="1" as="geometry">
            <mxPoint x="400" y="50" as="sourcePoint" />
            <mxPoint x="450" as="targetPoint" />
          </mxGeometry>
        </mxCell>
        <mxCell id="qezSa775ZFS_Le1PgmAF-10" value="1" style="text;html=1;align=center;verticalAlign=middle;resizable=0;points=[];autosize=1;strokeColor=none;fillColor=none;" parent="1" vertex="1">
          <mxGeometry x="205" y="-12" width="30" height="30" as="geometry" />
        </mxCell>
        <mxCell id="qezSa775ZFS_Le1PgmAF-11" value="M" style="text;html=1;align=center;verticalAlign=middle;resizable=0;points=[];autosize=1;strokeColor=none;fillColor=none;" parent="1" vertex="1">
          <mxGeometry x="270" y="-15" width="30" height="30" as="geometry" />
        </mxCell>
        <mxCell id="qezSa775ZFS_Le1PgmAF-12" value="Gender" style="ellipse;whiteSpace=wrap;html=1;strokeColor=default;fontStyle=0" parent="1" vertex="1">
          <mxGeometry x="495" y="-110" width="55" height="38" as="geometry" />
        </mxCell>
        <mxCell id="qezSa775ZFS_Le1PgmAF-13" value="DOB" style="ellipse;whiteSpace=wrap;html=1;strokeColor=default;fontStyle=0" parent="1" vertex="1">
          <mxGeometry x="340" y="-120" width="35" height="30" as="geometry" />
        </mxCell>
        <mxCell id="qezSa775ZFS_Le1PgmAF-14" value="" style="endArrow=classic;html=1;rounded=0;exitX=0;exitY=1;exitDx=0;exitDy=0;entryX=0.895;entryY=0.021;entryDx=0;entryDy=0;entryPerimeter=0;" parent="1" source="qezSa775ZFS_Le1PgmAF-12" target="NJpbKBPvi1NDH4ifTSa3-57" edge="1">
          <mxGeometry width="50" height="50" relative="1" as="geometry">
            <mxPoint x="520" as="sourcePoint" />
            <mxPoint x="570" y="-50" as="targetPoint" />
          </mxGeometry>
        </mxCell>
        <mxCell id="qezSa775ZFS_Le1PgmAF-15" value="" style="endArrow=classic;html=1;rounded=0;exitX=0;exitY=1;exitDx=0;exitDy=0;entryX=0.846;entryY=-0.013;entryDx=0;entryDy=0;entryPerimeter=0;" parent="1" source="NJpbKBPvi1NDH4ifTSa3-59" target="NJpbKBPvi1NDH4ifTSa3-57" edge="1">
          <mxGeometry width="50" height="50" relative="1" as="geometry">
            <mxPoint x="530" y="10" as="sourcePoint" />
            <mxPoint x="580" y="-40" as="targetPoint" />
          </mxGeometry>
        </mxCell>
        <mxCell id="qezSa775ZFS_Le1PgmAF-16" value="" style="endArrow=classic;html=1;rounded=0;exitX=0.5;exitY=1;exitDx=0;exitDy=0;entryX=0.698;entryY=0.017;entryDx=0;entryDy=0;entryPerimeter=0;" parent="1" source="NJpbKBPvi1NDH4ifTSa3-62" target="NJpbKBPvi1NDH4ifTSa3-57" edge="1">
          <mxGeometry width="50" height="50" relative="1" as="geometry">
            <mxPoint x="540" y="20" as="sourcePoint" />
            <mxPoint x="590" y="-30" as="targetPoint" />
          </mxGeometry>
        </mxCell>
        <mxCell id="qezSa775ZFS_Le1PgmAF-17" value="" style="endArrow=classic;html=1;rounded=0;exitX=0.679;exitY=0.969;exitDx=0;exitDy=0;exitPerimeter=0;entryX=0.37;entryY=0.002;entryDx=0;entryDy=0;entryPerimeter=0;" parent="1" source="NJpbKBPvi1NDH4ifTSa3-61" target="NJpbKBPvi1NDH4ifTSa3-57" edge="1">
          <mxGeometry width="50" height="50" relative="1" as="geometry">
            <mxPoint x="550" y="30" as="sourcePoint" />
            <mxPoint x="600" y="-20" as="targetPoint" />
          </mxGeometry>
        </mxCell>
        <mxCell id="qezSa775ZFS_Le1PgmAF-18" value="" style="endArrow=classic;html=1;rounded=0;exitX=1;exitY=1;exitDx=0;exitDy=0;entryX=0;entryY=0.25;entryDx=0;entryDy=0;" parent="1" source="NJpbKBPvi1NDH4ifTSa3-65" target="NJpbKBPvi1NDH4ifTSa3-57" edge="1">
          <mxGeometry width="50" height="50" relative="1" as="geometry">
            <mxPoint x="560" y="40" as="sourcePoint" />
            <mxPoint x="610" y="-10" as="targetPoint" />
          </mxGeometry>
        </mxCell>
        <mxCell id="qezSa775ZFS_Le1PgmAF-19" value="" style="endArrow=classic;html=1;rounded=0;exitX=1;exitY=1;exitDx=0;exitDy=0;entryX=0.21;entryY=0.017;entryDx=0;entryDy=0;entryPerimeter=0;" parent="1" source="qezSa775ZFS_Le1PgmAF-13" target="NJpbKBPvi1NDH4ifTSa3-57" edge="1">
          <mxGeometry width="50" height="50" relative="1" as="geometry">
            <mxPoint x="570" y="50" as="sourcePoint" />
            <mxPoint x="620" as="targetPoint" />
          </mxGeometry>
        </mxCell>
        <mxCell id="qezSa775ZFS_Le1PgmAF-21" value="Address" style="ellipse;whiteSpace=wrap;html=1;strokeColor=default;fontStyle=0" parent="1" vertex="1">
          <mxGeometry x="930" y="-120" width="50" height="45" as="geometry" />
        </mxCell>
        <mxCell id="qezSa775ZFS_Le1PgmAF-24" value="To Do List" style="shape=rhombus;perimeter=rhombusPerimeter;whiteSpace=wrap;html=1;align=center;" parent="1" vertex="1">
          <mxGeometry x="-268.75" y="16" width="80" height="82" as="geometry" />
        </mxCell>
        <mxCell id="qezSa775ZFS_Le1PgmAF-25" value="" style="endArrow=classic;html=1;rounded=0;exitX=0.5;exitY=0;exitDx=0;exitDy=0;entryX=0;entryY=0.25;entryDx=0;entryDy=0;" parent="1" source="qezSa775ZFS_Le1PgmAF-24" target="NJpbKBPvi1NDH4ifTSa3-74" edge="1">
          <mxGeometry width="50" height="50" relative="1" as="geometry">
            <mxPoint x="400" y="80" as="sourcePoint" />
            <mxPoint x="450" y="30" as="targetPoint" />
            <Array as="points">
              <mxPoint x="-190" y="-150" />
            </Array>
          </mxGeometry>
        </mxCell>
        <mxCell id="qezSa775ZFS_Le1PgmAF-26" value="" style="endArrow=classic;html=1;rounded=0;exitX=0.5;exitY=1;exitDx=0;exitDy=0;entryX=0.014;entryY=0.663;entryDx=0;entryDy=0;entryPerimeter=0;" parent="1" source="qezSa775ZFS_Le1PgmAF-24" target="NJpbKBPvi1NDH4ifTSa3-207" edge="1">
          <mxGeometry width="50" height="50" relative="1" as="geometry">
            <mxPoint x="-250" y="28" as="sourcePoint" />
            <mxPoint x="-9" y="-233" as="targetPoint" />
            <Array as="points">
              <mxPoint x="-140" y="290" />
              <mxPoint x="110" y="350" />
              <mxPoint x="350" y="410" />
            </Array>
          </mxGeometry>
        </mxCell>
        <mxCell id="qezSa775ZFS_Le1PgmAF-27" value="M" style="text;html=1;align=center;verticalAlign=middle;resizable=0;points=[];autosize=1;strokeColor=none;fillColor=none;" parent="1" vertex="1">
          <mxGeometry x="-285" y="-22" width="30" height="30" as="geometry" />
        </mxCell>
        <mxCell id="qezSa775ZFS_Le1PgmAF-28" value="M" style="text;html=1;align=center;verticalAlign=middle;resizable=0;points=[];autosize=1;strokeColor=none;fillColor=none;" parent="1" vertex="1">
          <mxGeometry x="-285" y="98" width="30" height="30" as="geometry" />
        </mxCell>
        <mxCell id="qezSa775ZFS_Le1PgmAF-29" value="Service to" style="shape=rhombus;perimeter=rhombusPerimeter;whiteSpace=wrap;html=1;align=center;" parent="1" vertex="1">
          <mxGeometry x="257.5" y="-530" width="92.5" height="50" as="geometry" />
        </mxCell>
        <mxCell id="qezSa775ZFS_Le1PgmAF-30" value="" style="endArrow=classic;html=1;rounded=0;exitX=0;exitY=0.5;exitDx=0;exitDy=0;entryX=1;entryY=0;entryDx=0;entryDy=0;" parent="1" source="qezSa775ZFS_Le1PgmAF-29" target="NJpbKBPvi1NDH4ifTSa3-74" edge="1">
          <mxGeometry width="50" height="50" relative="1" as="geometry">
            <mxPoint x="-134" y="-114" as="sourcePoint" />
            <mxPoint x="-9" y="-220" as="targetPoint" />
          </mxGeometry>
        </mxCell>
        <mxCell id="qezSa775ZFS_Le1PgmAF-31" value="" style="endArrow=classic;html=1;rounded=0;exitX=1;exitY=0.5;exitDx=0;exitDy=0;entryX=0;entryY=0.25;entryDx=0;entryDy=0;" parent="1" source="qezSa775ZFS_Le1PgmAF-29" target="NJpbKBPvi1NDH4ifTSa3-88" edge="1">
          <mxGeometry width="50" height="50" relative="1" as="geometry">
            <mxPoint x="268" y="-495" as="sourcePoint" />
            <mxPoint x="111" y="-245" as="targetPoint" />
            <Array as="points">
              <mxPoint x="510" y="-440" />
            </Array>
          </mxGeometry>
        </mxCell>
        <mxCell id="qezSa775ZFS_Le1PgmAF-32" value="M" style="text;html=1;align=center;verticalAlign=middle;resizable=0;points=[];autosize=1;strokeColor=none;fillColor=none;" parent="1" vertex="1">
          <mxGeometry x="225" y="-522" width="30" height="30" as="geometry" />
        </mxCell>
        <mxCell id="qezSa775ZFS_Le1PgmAF-33" value="M" style="text;html=1;align=center;verticalAlign=middle;resizable=0;points=[];autosize=1;strokeColor=none;fillColor=none;" parent="1" vertex="1">
          <mxGeometry x="355" y="-532" width="30" height="30" as="geometry" />
        </mxCell>
      </root>
    </mxGraphModel>
  </diagram>
</mxfile>
